<svg id="Camada_1" data-name="Camada 1" xmlns="http://www.w3.org/2000/svg" xmlns:xlink="http://www.w3.org/1999/xlink" viewBox="0 0 603.27 630.89"><defs><clipPath id="clip-path" transform="translate(-9.23 -108.61)"><path d="M596.9,402.7c0,162.15-131.44,293.59-293.59,293.59S9.73,564.85,9.73,402.7c0-64.16,0-155,34.92-203.29,53.33-73.76,160.69-90.3,258.66-90.3C465.46,109.11,596.9,240.56,596.9,402.7Z" style="fill:none"/></clipPath></defs><circle cx="294.09" cy="294.09" r="293.59" style="fill:#fef1e7;stroke:#1d1d1b;stroke-miterlimit:10"/><g style="clip-path:url(#clip-path)"><path d="M99.62,624.52H281a0,0,0,0,1,0,0v29.06a6,6,0,0,1-6,6H105.62a6,6,0,0,1-6-6V624.52a0,0,0,0,1,0,0Z" transform="translate(-117.83 -65.81) rotate(-10)" style="fill:#d49191;stroke:#444;stroke-miterlimit:10"/><rect x="105.19" y="311.74" width="63" height="52.24" transform="translate(-65.82 -79.75) rotate(-10)" style="fill:#a6a6a6;stroke:#444;stroke-miterlimit:10"/><rect x="32.3" y="225.92" width="172.41" height="17.65" transform="translate(-48.19 -84.47) rotate(-10)" style="fill:#252525;stroke:#444;stroke-miterlimit:10"/><path d="M38,243.07H210.44a0,0,0,0,1,0,0V289a2.44,2.44,0,0,1-2.44,2.44H40.47A2.44,2.44,0,0,1,38,289V243.07a0,0,0,0,1,0,0Z" transform="translate(-53.75 -82.98) rotate(-10)" style="fill:#fcfcfc;stroke:#444;stroke-miterlimit:10"/><polygon points="52.54 208.27 35.68 197.67 202.95 168.18 192.99 181.44 190.07 183.88 153.25 197.68 91.3 208.59 55.85 208.98 52.54 208.27" style="fill:#a6a6a6"/><path d="M211,277.51l-9.16,12.2L199,292.06l-36.65,13.73L100.52,316.7l-35.4.39L62,316.41l-15.69-9.85L211,277.51m2.32-1.43L43.54,306l18,11.34,3.44.73,35.59-.39,62.05-10.94,36.89-13.82,3-2.54,10.75-14.32Z" transform="translate(-9.23 -108.61)" style="fill:#444"/><rect x="105.96" y="254.98" width="38.65" height="36.35" transform="translate(-54.76 -82.71) rotate(-10)" style="fill:#a6a6a6;stroke:#444;stroke-miterlimit:10"/><ellipse cx="123.51" cy="263.09" rx="4.85" ry="6.02" transform="translate(-53.04 -83.17) rotate(-10)" style="fill:#a6a6a6;stroke:#444;stroke-miterlimit:10"/><polygon points="221.33 239.21 267.39 500.42 88.73 531.93 42.67 270.72 91.17 259.5 99.31 257.62 161.36 246.68 169.98 245.61 221.33 239.21" style="fill:#efa7a6;stroke:#444;stroke-miterlimit:10"/><rect x="72.64" y="423.04" width="141.88" height="57.53" transform="translate(-85.5 -76.82) rotate(-10)" style="fill:#f7bcb0;stroke:#444;stroke-miterlimit:10"/><text transform="translate(75.29 364.16) rotate(-10)" style="font-size:26.874530792236328px;fill:#444;font-family:GillSansMT, Gill Sans MT">Vê<tspan x="29.11" y="0" style="letter-spacing:-0.009756711039053671em">n</tspan><tspan x="42.28" y="0" style="letter-spacing:-0.000018168921860435142em">us</tspan></text><text transform="translate(104.55 450.84) rotate(-10)" style="font-size:14.309869766235352px;fill:#444;font-family:GillSansMT, Gill Sans MT">50ml<tspan x="0" y="17.17" style="letter-spacing:-0.02487493157274522em">P</tspan><tspan x="6.94" y="17.17">erfume</tspan></text><rect x="109.44" y="358.11" width="61.99" height="1.96" transform="translate(-69.45 -78.77) rotate(-10)" style="fill:#838487"/><rect x="101.42" y="312.6" width="61.97" height="1.98" transform="translate(-61.67 -80.86) rotate(-10)" style="fill:#838487"/><polygon points="220.91 239.77 221.08 240.7 43.42 272.02 43.25 271.09 99.44 258.06 161.6 247.21 220.91 239.77" style="fill:#ca8182"/><rect x="335.49" y="386.89" width="249.88" height="273.88" rx="12" transform="translate(88.73 -180.61) rotate(10)" style="fill:#f6b5b5;stroke:#444;stroke-miterlimit:10"/><rect x="357.73" y="553.03" width="204.88" height="12.71" transform="translate(94.9 -180.02) rotate(10)" style="fill:#e2a7a7"/><rect x="464.68" y="328.37" width="50.35" height="72.06" transform="translate(36.7 674.92) rotate(-80)" style="fill:#a2a5ac;stroke:#444;stroke-miterlimit:10"/><rect x="453.59" y="346.35" width="74.03" height="27.53" rx="1" transform="translate(60.76 -188.34) rotate(10)" style="fill:#939599;stroke:#444;stroke-miterlimit:10"/><path d="M445.88,329.44h96.35a0,0,0,0,1,0,0v9.06a1,1,0,0,1-1,1H446.88a1,1,0,0,1-1-1v-9.06a0,0,0,0,1,0,0Z" transform="matrix(0.98, 0.17, -0.17, 0.98, 56.36, -189.33)" style="fill:#a5a7a9;stroke:#444;stroke-miterlimit:10"/><path d="M454.34,254.21h94.35a1,1,0,0,1,1,1v74.88a0,0,0,0,1,0,0H453.34a0,0,0,0,1,0,0V255.21a1,1,0,0,1,1-1Z" transform="matrix(0.98, 0.17, -0.17, 0.98, 49.12, -191.26)" style="fill:#dee0e1;stroke:#444;stroke-miterlimit:10"/><path d="M558.71,680.21l-244.11-43a1,1,0,0,1-.82-1.16L351.6,421.55a1,1,0,0,1,1.16-.81c20.56,17.34,29,128.65,101.13,140.22,78.94,12.67,116.37-86.81,144-97l-38,215.44A1,1,0,0,1,558.71,680.21Z" transform="translate(-9.23 -108.61)" style="fill:#ebebeb;stroke:#444;stroke-miterlimit:10"/><path d="M528.84,328.45l-1.2,6.83-64.83-11.43L464,317a1,1,0,0,1,1.16-.81l16.14,2.84,4-22.83a1,1,0,0,1,1.16-.81l28.62,5a1,1,0,0,1,.81,1.16l-4,22.83L528,327.29A1,1,0,0,1,528.84,328.45Z" transform="translate(-9.23 -108.61)" style="fill:#a5a7a9;stroke:#444;stroke-miterlimit:10"/><ellipse cx="498.92" cy="307.6" rx="5.69" ry="6.09" transform="translate(100.13 636.91) rotate(-80)" style="fill:#ebebeb;stroke:#444;stroke-miterlimit:10"/><path d="M596.46,408.79s-8.69,7.68-19.41,11.24a28.85,28.85,0,0,1-14.41,1.38L390.43,391.05c-1.91-.78-4.11-2.67-6.31-5-6.13-6.59-12.25-16.84-12.25-16.84Z" transform="translate(-9.23 -108.61)" style="fill:#e5534d;stroke:#444;stroke-miterlimit:10"/><rect x="494.94" y="296.22" width="0.88" height="64.84" transform="translate(76.48 650.82) rotate(-80)" style="fill:#98999c"/><rect x="492.57" y="310.51" width="1.06" height="71.06" transform="translate(57.46 662.94) rotate(-80)" style="fill:#6d7075"/><rect x="487.6" y="338.66" width="1.06" height="71.06" transform="translate(25.64 681.32) rotate(-80)" style="fill:#6d7075"/><rect x="485.05" y="353.14" width="1.06" height="71.06" transform="translate(9.27 690.77) rotate(-80)" style="fill:#6d7075"/><rect x="493.61" y="304.6" width="1.06" height="71.06" transform="translate(64.14 659.08) rotate(-80)" style="fill:#6d7075"/><rect x="496.16" y="306.77" width="0.88" height="30.07" transform="translate(84.22 646.36) rotate(-80)" style="fill:#444"/><path d="M576.53,419.68c-4.61,1.53-8.56,2.48-13.39,1.56L390.93,390.88c-1.91-.78-4.11-2.67-6.31-5Z" transform="translate(-9.23 -108.61)" style="fill:#cb4c44"/><text transform="translate(425.93 404.1) rotate(10)" style="font-size:12px;fill:#444;font-family:GillSansMT, Gill Sans MT"><tspan style="letter-spacing:-0.02490234375em">P</tspan><tspan x="5.82" y="0">ersé</tspan><tspan x="26.68" y="0" style="letter-spacing:-0.009765625em">f</tspan><tspan x="29.57" y="0">one</tspan></text><text transform="translate(397.07 525.13) rotate(10)" style="font-size:8.388299942016602px;fill:#444;font-family:GillSansMT, Gill Sans MT">50ml de <tspan x="29.65" y="0" style="letter-spacing:-0.02491379378951473em">P</tspan><tspan x="33.72" y="0">erfume</tspan></text><path d="M355.38,198.65V304.56h-108V198.65A5.63,5.63,0,0,1,253,193h96.77A5.64,5.64,0,0,1,355.38,198.65Z" transform="translate(-9.23 -108.61)" style="fill:#eeefec;stroke:#444;stroke-miterlimit:10"/><path d="M356.14,655.5H247.2c-81.34-97.44-63.39-288.76-8.89-347.3q1.59-1.72,3.24-3.29l118.71-.34q1.78,1.77,3.49,3.63C442.4,393.22,422.7,604.53,356.14,655.5Z" transform="translate(-9.23 -108.61)" style="fill:#eac6df;stroke:#444;stroke-miterlimit:10"/><ellipse cx="292.15" cy="106.59" rx="9.35" ry="11.65" style="fill:#c3c2c2;stroke:#444;stroke-miterlimit:10"/><path d="M356.14,655.5H247.2c-24.94-29.18-36.65-65.82-36.65-65.82s17.71,1,40.77,11.35C280,613.91,334.47,612.3,362,597.38c14.24-7.7,35.15-7.7,35.15-7.7S384.49,633.15,356.14,655.5Z" transform="translate(-9.23 -108.61)" style="fill:#b0b0af;stroke:#444;stroke-miterlimit:10"/><text transform="translate(241.85 318.09)" style="font-size:30.02050018310547px;fill:#444;font-family:GillSansMT, Gill Sans MT">Af<tspan x="27.53" y="0" style="letter-spacing:-0.024901603543924327em">r</tspan><tspan x="38.67" y="0" style="letter-spacing:0.000016264927200473106em">odite</tspan></text><text transform="translate(248.09 460.01)" style="font-size:13.15011978149414px;fill:#444;font-family:GillSansMT, Gill Sans MT">50ml de <tspan x="46.48" y="0" style="letter-spacing:-0.0248779815648819em">P</tspan><tspan x="52.86" y="0">erfume</tspan></text><path d="M362.33,307.41H239.73s2-2,2-2l118.32-.34Z" transform="translate(-9.23 -108.61)" style="fill:#c486a6"/><rect x="238.65" y="194.59" width="107" height="0.86" style="fill:#c3c2c2"/><rect x="0.5" y="515.43" width="602.27" height="114.95" style="fill:#ccc2ba;stroke:#1d1d1b;stroke-miterlimit:10"/></g></svg>