<svg id="Camada_1" data-name="Camada 1" xmlns="http://www.w3.org/2000/svg" viewBox="0 0 259.85 511"><path d="M285.32,629V119c140.83,0,255,114.17,255,255s-114.17,255-255,255" transform="translate(-284.82 -118.5)" style="fill:#fff;stroke:#1d1d1b;stroke-miterlimit:10"/><rect x="9.47" y="226.3" width="249.88" height="273.88" rx="12" style="fill:#f6b5b5;stroke:#444;stroke-miterlimit:10"/><rect x="37.88" y="391.95" width="204.88" height="12.71" style="fill:#e2a7a7"/><rect x="99.67" y="175.95" width="72.06" height="50.35" style="fill:#a2a5ac;stroke:#444;stroke-miterlimit:10"/><rect x="98.68" y="183.01" width="74.03" height="27.53" rx="1" style="fill:#939599;stroke:#444;stroke-miterlimit:10"/><path d="M371.28,284.39h96.35v9.06a1,1,0,0,1-1,1H372.28a1,1,0,0,1-1-1v-9.06Z" transform="translate(-284.82 -118.5)" style="fill:#a5a7a9;stroke:#444;stroke-miterlimit:10"/><path d="M372.28,208.51h94.35a1,1,0,0,1,1,1v74.88H371.28V209.51A1,1,0,0,1,372.28,208.51Z" transform="translate(-284.82 -118.5)" style="fill:#dee0e1;stroke:#444;stroke-miterlimit:10"/><path d="M543.17,618.68H295.29a1,1,0,0,1-1-1V399.92a1,1,0,0,1,1-1c23.26,13.5,50.88,121.66,123.94,120.58,79.94-1.24,99.53-105.71,124.94-120.53V617.68A1,1,0,0,1,543.17,618.68Z" transform="translate(-284.82 -118.5)" style="fill:#ebebeb;stroke:#444;stroke-miterlimit:10"/><path d="M452.67,277.5v6.94H386.84V277.5a1,1,0,0,1,1-1h16.39V253.27a1,1,0,0,1,1-1h29.06a1,1,0,0,1,1,1V276.5h16.38A1,1,0,0,1,452.67,277.5Z" transform="translate(-284.82 -118.5)" style="fill:#a5a7a9;stroke:#444;stroke-miterlimit:10"/><ellipse cx="134.76" cy="143.61" rx="6.09" ry="5.69" style="fill:#ebebeb;stroke:#444;stroke-miterlimit:10"/><path d="M533.21,344.83s-7.22,9.07-17.16,14.44a28.82,28.82,0,0,1-13.95,3.86H327.23c-2-.44-4.51-1.92-7.09-3.87-7.18-5.43-15-14.46-15-14.46Z" transform="translate(-284.82 -118.5)" style="fill:#e5534d;stroke:#444;stroke-miterlimit:10"/><rect x="102.51" y="164.52" width="64.84" height="0.88" style="fill:#98999c"/><rect x="100.18" y="181.95" width="71.06" height="1.06" style="fill:#6d7075"/><rect x="100.18" y="210.54" width="71.06" height="1.06" style="fill:#6d7075"/><rect x="100.18" y="225.24" width="71.06" height="1.06" style="fill:#6d7075"/><rect x="100.18" y="175.95" width="71.06" height="1.06" style="fill:#6d7075"/><rect x="119.91" y="157.57" width="30.07" height="0.88" style="fill:#444"/><path d="M515.47,359c-4.27,2.31-8,3.93-12.91,3.86H327.69c-2-.44-4.51-1.92-7.09-3.87Z" transform="translate(-284.82 -118.5)" style="fill:#cb4c44"/><g style="isolation:isolate"><text transform="translate(107.58 356.66)" style="isolation:isolate;font-size:12px;fill:#444;font-family:GillSansMT, Gill Sans MT;letter-spacing:-0.024007161458333332em">P</text><text transform="translate(113.4 356.66)" style="isolation:isolate;font-size:12px;fill:#444;font-family:GillSansMT, Gill Sans MT">ersé</text><text transform="translate(134.26 356.66)" style="isolation:isolate;font-size:12px;fill:#444;font-family:GillSansMT, Gill Sans MT;letter-spacing:-0.008992513020833334em">f</text><text transform="translate(137.15 356.66)" style="isolation:isolate;font-size:12px;fill:#444;font-family:GillSansMT, Gill Sans MT">one</text></g><g style="isolation:isolate"><text transform="translate(100.18 480.85)" style="isolation:isolate;font-size:8.388299942016602px;fill:#444;font-family:GillSansMT, Gill Sans MT">50ml de </text><text transform="translate(129.83 480.85)" style="isolation:isolate;font-size:8.388299942016602px;fill:#444;font-family:GillSansMT, Gill Sans MT;letter-spacing:-0.023982437012336613em">P</text><text transform="translate(133.9 480.85)" style="isolation:isolate;font-size:8.388299942016602px;fill:#444;font-family:GillSansMT, Gill Sans MT">erfume</text></g></svg>