<svg id="Camada_1" data-name="Camada 1" xmlns="http://www.w3.org/2000/svg" viewBox="0 0 256 511"><path d="M540.29,119V629c-140.83,0-255-114.17-255-255s114.17-255,255-255" transform="translate(-284.79 -118.53)" style="fill:#fff;stroke:#1d1d1b;stroke-miterlimit:10"/><path d="M462.1,160.86V266.77h-108V160.86a5.62,5.62,0,0,1,5.61-5.62h96.77A5.64,5.64,0,0,1,462.1,160.86Z" transform="translate(-284.79 -118.53)" style="fill:#eeefec;stroke:#444;stroke-miterlimit:10"/><path d="M462.86,617.71H353.92C272.58,520.27,290.53,329,345,270.41c1.06-1.16,2.14-2.25,3.24-3.29L467,266.78q1.78,1.77,3.49,3.63C549.12,355.43,529.42,566.74,462.86,617.71Z" transform="translate(-284.79 -118.53)" style="fill:#eac6df;stroke:#444;stroke-miterlimit:10"/><ellipse cx="123.31" cy="58.87" rx="9.35" ry="11.65" style="fill:#c3c2c2;stroke:#444;stroke-miterlimit:10"/><path d="M462.86,617.71H353.92c-24.94-29.18-36.65-65.83-36.65-65.83s17.71,1,40.77,11.36c28.69,12.88,83.16,11.26,110.7-3.65,14.24-7.71,35.15-7.71,35.15-7.71S491.21,595.36,462.86,617.71Z" transform="translate(-284.79 -118.53)" style="fill:#b0b0af;stroke:#444;stroke-miterlimit:10"/><g style="isolation:isolate"><text transform="translate(73.01 270.37)" style="isolation:isolate;font-size:30.02050018310547px;fill:#444;font-family:GillSansMT, Gill Sans MT">Af</text><text transform="translate(100.54 270.37)" style="isolation:isolate;font-size:30.02050018310547px;fill:#444;font-family:GillSansMT, Gill Sans MT;letter-spacing:-0.024007032547898304em">r</text><text transform="translate(111.68 270.37)" style="isolation:isolate;font-size:30.02050018310547px;fill:#444;font-family:GillSansMT, Gill Sans MT">odite</text></g><g style="isolation:isolate"><text transform="translate(79.25 412.3)" style="isolation:isolate;font-size:13.15011978149414px;fill:#444;font-family:GillSansMT, Gill Sans MT">50ml de </text><text transform="translate(125.73 412.3)" style="isolation:isolate;font-size:13.15011978149414px;fill:#444;font-family:GillSansMT, Gill Sans MT;letter-spacing:-0.024023961302206846em">P</text><text transform="translate(132.11 412.3)" style="isolation:isolate;font-size:13.15011978149414px;fill:#444;font-family:GillSansMT, Gill Sans MT">erfume</text></g><path d="M469.05,269.62H346.46l2-2,118.32-.34Z" transform="translate(-284.79 -118.53)" style="fill:#c486a6"/><rect x="69.81" y="146.87" width="107" height="0.86" style="fill:#c3c2c2"/></svg>