<svg id="Camada_1" data-name="Camada 1" xmlns="http://www.w3.org/2000/svg" viewBox="0 0 256 511"><path d="M285.32,629V119c140.83,0,255,114.17,255,255s-114.17,255-255,255" transform="translate(-284.82 -118.5)" style="fill:#fff;stroke:#1d1d1b;stroke-miterlimit:10"/><path d="M304.82,581.82H486.24v29.06a6,6,0,0,1-6,6H310.82a6,6,0,0,1-6-6V581.82Z" transform="translate(-284.82 -118.5)" style="fill:#d49191;stroke:#444;stroke-miterlimit:10"/><rect x="79.21" y="145.85" width="63" height="52.24" style="fill:#a6a6a6;stroke:#444;stroke-miterlimit:10"/><rect x="24.5" y="58.44" width="172.41" height="17.65" style="fill:#252525;stroke:#444;stroke-miterlimit:10"/><path d="M309.32,194.59H481.74V240.5a2.44,2.44,0,0,1-2.42,2.44H311.76a2.44,2.44,0,0,1-2.44-2.44h0V194.59Z" transform="translate(-284.82 -118.5)" style="fill:#fcfcfc;stroke:#444;stroke-miterlimit:10"/><polygon points="78.68 145.35 43.7 139.57 40.57 138.3 25.8 124.94 195.65 124.94 183.54 136.27 180.24 138.17 141.64 145.35 78.68 145.35" style="fill:#a6a6a6"/><path d="M479.2,243.94,468,254.36l-3.18,1.84-38.47,7.15H363.58l-34.92-5.76-3-1.21-13.74-12.44H479.2m2.54-1H309.32l15.8,14.3,3.26,1.32,35.12,5.79h63l38.74-7.2,3.42-2,13.08-12.23Z" transform="translate(-284.82 -118.5)" style="fill:#444"/><rect x="91.39" y="88.09" width="38.65" height="36.35" style="fill:#a6a6a6;stroke:#444;stroke-miterlimit:10"/><ellipse cx="110.71" cy="96.05" rx="4.85" ry="6.02" style="fill:#a6a6a6;stroke:#444;stroke-miterlimit:10"/><polygon points="201.42 198.09 201.42 463.33 20 463.33 20 198.09 69.71 195.47 78.06 195.03 141.06 195.03 149.74 195.47 201.42 198.09" style="fill:#efa7a6;stroke:#444;stroke-miterlimit:10"/><rect x="26.77" y="256.62" width="141.88" height="57.53" style="fill:#f7bcb0;stroke:#444;stroke-miterlimit:10"/><g style="isolation:isolate"><text transform="translate(35.87 295.77)" style="isolation:isolate;font-size:26.874530792236328px;fill:#444;font-family:GillSansMT, Gill Sans MT">Vê</text><text transform="translate(64.98 295.77)" style="isolation:isolate;font-size:26.874530792236328px;fill:#444;font-family:GillSansMT, Gill Sans MT;letter-spacing:-0.009011785242775832em">n</text><text transform="translate(78.15 295.77)" style="isolation:isolate;font-size:26.874530792236328px;fill:#444;font-family:GillSansMT, Gill Sans MT">us</text></g><g style="isolation:isolate"><text transform="translate(49.63 386.21)" style="isolation:isolate;font-size:14.309869766235352px;fill:#444;font-family:GillSansMT, Gill Sans MT">50ml</text><text transform="translate(49.63 403.38)" style="isolation:isolate;font-size:14.309869766235352px;fill:#444;font-family:GillSansMT, Gill Sans MT;letter-spacing:-0.02402188179315862em">P</text><text transform="translate(56.57 403.38)" style="isolation:isolate;font-size:14.309869766235352px;fill:#444;font-family:GillSansMT, Gill Sans MT">erfume</text></g><rect x="79.72" y="192.55" width="61.99" height="1.96" style="fill:#838487"/><rect x="79.72" y="146.34" width="61.97" height="1.98" style="fill:#838487"/><polygon points="200.91 198.56 200.91 199.51 20.51 199.51 20.51 198.56 78.11 195.48 141.21 195.59 200.91 198.56" style="fill:#ca8182"/></svg>