<svg id="Camada_2" data-name="Camada 2" xmlns="http://www.w3.org/2000/svg" viewBox="0 0 224.12 463.47"><path d="M350.18,195.63V301.54h-108V195.63a5.63,5.63,0,0,1,5.61-5.62h96.77A5.64,5.64,0,0,1,350.18,195.63Z" transform="translate(-186.06 -189.51)" style="fill:#eeefec;stroke:#434343;stroke-miterlimit:10"/><path d="M350.94,652.48H242c-81.34-97.44-63.39-288.76-8.89-347.3q1.59-1.73,3.24-3.29l118.71-.34q1.79,1.77,3.49,3.63C437.2,390.2,417.5,601.51,350.94,652.48Z" transform="translate(-186.06 -189.51)" style="fill:#eac6df;stroke:#434343;stroke-miterlimit:10"/><ellipse cx="110.12" cy="22.67" rx="9.35" ry="11.65" style="fill:#c2c2c2;stroke:#434343;stroke-miterlimit:10"/><path d="M350.94,652.48H242c-24.94-29.18-36.65-65.83-36.65-65.83s17.71,1,40.77,11.36c28.69,12.88,83.16,11.26,110.7-3.65,14.24-7.71,35.15-7.71,35.15-7.71S379.29,630.13,350.94,652.48Z" transform="translate(-186.06 -189.51)" style="fill:#afafaf;stroke:#434343;stroke-miterlimit:10"/><text transform="translate(59.82 234.17)" style="font-size:30.02050018310547px;fill:#434343;font-family:GillSansMT, Gill Sans MT">Af<tspan x="27.53" y="0" style="letter-spacing:-0.024901603543924327em">r</tspan><tspan x="38.67" y="0" style="letter-spacing:0.000016264927200473106em">odite</tspan></text><text transform="translate(66.06 376.09)" style="font-size:13.15011978149414px;fill:#434343;font-family:GillSansMT, Gill Sans MT">50ml de <tspan x="46.48" y="0" style="letter-spacing:-0.0248779815648819em">P</tspan><tspan x="52.86" y="0">erfume</tspan></text><path d="M357.13,304.39H234.54s2-2,2-2l118.32-.34Z" transform="translate(-186.06 -189.51)" style="fill:#c285a5"/><rect x="56.62" y="110.67" width="107" height="0.86" style="fill:#c2c2c2"/></svg>