<svg id="Camada_2" data-name="Camada 2" xmlns="http://www.w3.org/2000/svg" viewBox="0 0 182.42 440.94"><path d="M.5,405.38H181.92a0,0,0,0,1,0,0v29.06a6,6,0,0,1-6,6H6.5a6,6,0,0,1-6-6V405.38a0,0,0,0,1,0,0Z" style="fill:#d49190;stroke:#434343;stroke-miterlimit:10"/><rect x="59.71" y="87.91" width="63" height="52.24" style="fill:#a6a6a6;stroke:#434343;stroke-miterlimit:10"/><rect x="5" y="0.5" width="172.41" height="17.65" style="fill:#252525;stroke:#434343;stroke-miterlimit:10"/><path d="M5,18.15H177.42a0,0,0,0,1,0,0V64.06A2.44,2.44,0,0,1,175,66.5H7.44A2.44,2.44,0,0,1,5,64.06V18.15A0,0,0,0,1,5,18.15Z" style="fill:#fbfbfb;stroke:#434343;stroke-miterlimit:10"/><polygon points="59.18 87.41 24.2 81.63 21.07 80.36 6.3 67 176.15 67 164.04 78.33 160.74 80.23 122.14 87.41 59.18 87.41" style="fill:#a6a6a6"/><path d="M459.16,513.35,448,523.77l-3.18,1.84-38.47,7.15H343.54L308.62,527l-3-1.21-13.74-12.44H459.16m2.54-1H289.28l15.8,14.3,3.26,1.32,35.12,5.79h63l38.74-7.2,3.42-2,13.08-12.23Z" transform="translate(-284.28 -445.85)" style="fill:#434343"/><rect x="71.89" y="30.15" width="38.65" height="36.35" style="fill:#a6a6a6;stroke:#434343;stroke-miterlimit:10"/><ellipse cx="91.21" cy="38.11" rx="4.85" ry="6.02" style="fill:#a6a6a6;stroke:#434343;stroke-miterlimit:10"/><polygon points="181.92 140.15 181.92 405.39 0.5 405.39 0.5 140.15 50.21 137.53 58.56 137.09 121.56 137.09 130.24 137.53 181.92 140.15" style="fill:#efa7a6;stroke:#434343;stroke-miterlimit:10"/><rect x="7.27" y="198.68" width="141.88" height="57.53" style="fill:#f8bbaf;stroke:#434343;stroke-miterlimit:10"/><text transform="translate(16.37 237.83)" style="font-size:26.874530792236328px;fill:#434343;font-family:GillSansMT, Gill Sans MT">Vê<tspan x="29.11" y="0" style="letter-spacing:-0.009756711039053671em">n</tspan><tspan x="42.28" y="0" style="letter-spacing:-0.000018168921860435142em">us</tspan></text><text transform="translate(30.13 328.27)" style="font-size:14.309869766235352px;fill:#434343;font-family:GillSansMT, Gill Sans MT">50ml<tspan x="0" y="17.17" style="letter-spacing:-0.02487493157274522em">P</tspan><tspan x="6.94" y="17.17">erfume</tspan></text><rect x="60.22" y="134.61" width="61.99" height="1.96" style="fill:#838386"/><rect x="60.22" y="88.4" width="61.97" height="1.98" style="fill:#838386"/><polygon points="181.41 140.62 181.41 141.57 1.01 141.57 1.01 140.62 58.61 137.54 121.71 137.65 181.41 140.62" style="fill:#ca8081"/></svg>