<svg id="Camada_2" data-name="Camada 2" xmlns="http://www.w3.org/2000/svg" viewBox="0 0 250.88 411.18"><rect x="0.5" y="136.79" width="249.88" height="273.88" rx="12" style="fill:#f7b4b4;stroke:#434343;stroke-miterlimit:10"/><rect x="28.91" y="302.44" width="204.88" height="12.71" style="fill:#e2a7a7"/><rect x="90.7" y="86.44" width="72.06" height="50.35" style="fill:#a2a5ac;stroke:#434343;stroke-miterlimit:10"/><rect x="89.71" y="93.5" width="74.03" height="27.53" rx="1" style="fill:#939598;stroke:#434343;stroke-miterlimit:10"/><path d="M77.49,76.38h96.35a0,0,0,0,1,0,0v9.06a1,1,0,0,1-1,1H78.49a1,1,0,0,1-1-1V76.38A0,0,0,0,1,77.49,76.38Z" style="fill:#a5a7aa;stroke:#434343;stroke-miterlimit:10"/><path d="M78.49.5h94.35a1,1,0,0,1,1,1V76.38a0,0,0,0,1,0,0H77.49a0,0,0,0,1,0,0V1.5A1,1,0,0,1,78.49.5Z" style="fill:#dee0e1;stroke:#434343;stroke-miterlimit:10"/><path d="M423.12,601.18H175.24a1,1,0,0,1-1-1V382.42a1,1,0,0,1,1-1C198.5,394.92,226.12,503.08,299.18,502c79.94-1.24,99.53-105.71,124.94-120.53V600.18A1,1,0,0,1,423.12,601.18Z" transform="translate(-173.74 -190.51)" style="fill:#ebebeb;stroke:#434343;stroke-miterlimit:10"/><path d="M332.62,260v6.94H266.79V260a1,1,0,0,1,1-1h16.39V235.77a1,1,0,0,1,1-1h29.06a1,1,0,0,1,1,1V259h16.38A1,1,0,0,1,332.62,260Z" transform="translate(-173.74 -190.51)" style="fill:#a5a7aa;stroke:#434343;stroke-miterlimit:10"/><ellipse cx="125.79" cy="54.1" rx="6.09" ry="5.69" style="fill:#ebebeb;stroke:#434343;stroke-miterlimit:10"/><path d="M413.16,327.33s-7.22,9.07-17.16,14.44a28.8,28.8,0,0,1-13.95,3.86H207.18c-2-.44-4.51-1.92-7.09-3.87-7.18-5.43-15-14.46-15-14.46Z" transform="translate(-173.74 -190.51)" style="fill:#e5514c;stroke:#434343;stroke-miterlimit:10"/><rect x="93.54" y="75.01" width="64.84" height="0.88" style="fill:#97999b"/><rect x="91.21" y="92.44" width="71.06" height="1.06" style="fill:#6c7074"/><rect x="91.21" y="121.03" width="71.06" height="1.06" style="fill:#6c7074"/><rect x="91.21" y="135.73" width="71.06" height="1.06" style="fill:#6c7074"/><rect x="91.21" y="86.44" width="71.06" height="1.06" style="fill:#6c7074"/><rect x="110.94" y="68.06" width="30.07" height="0.88" style="fill:#434343"/><path d="M395.42,341.51c-4.27,2.31-8,3.93-12.91,3.86H207.64c-2-.44-4.51-1.92-7.09-3.87Z" transform="translate(-173.74 -190.51)" style="fill:#cb4a44"/><text transform="translate(98.61 267.15)" style="font-size:12px;fill:#434343;font-family:GillSansMT, Gill Sans MT"><tspan style="letter-spacing:-0.02490234375em">P</tspan><tspan x="5.82" y="0">ersé</tspan><tspan x="26.68" y="0" style="letter-spacing:-0.009765625em">f</tspan><tspan x="29.57" y="0">one</tspan></text><text transform="translate(91.21 391.34)" style="font-size:8.388299942016602px;fill:#434343;font-family:GillSansMT, Gill Sans MT">50ml de <tspan x="29.65" y="0" style="letter-spacing:-0.02491379378951473em">P</tspan><tspan x="33.72" y="0">erfume</tspan></text></svg>